<?xml version="1.0" standalone="no"?>
<!DOCTYPE svg PUBLIC "-//W3C//DTD SVG 20010904//EN"
 "http://www.w3.org/TR/2001/REC-SVG-20010904/DTD/svg10.dtd">
<svg version="1.0" xmlns="http://www.w3.org/2000/svg"
 width="1024.000000pt" height="1024.000000pt" viewBox="0 0 1024.000000 1024.000000"
 preserveAspectRatio="xMidYMid meet">

<g transform="translate(0.000000,1024.000000) scale(0.100000,-0.100000)"
fill="#000000" stroke="none">
<path d="M6103 8973 c-63 -9 -68 -82 -7 -111 19 -8 34 -19 34 -24 0 -4 7 -5
15 -2 8 4 15 1 15 -5 0 -9 33 -26 155 -81 11 -5 41 -16 66 -24 26 -8 68 -29
95 -45 26 -17 53 -31 59 -31 6 0 33 -19 60 -43 28 -24 59 -47 69 -51 19 -6 18
-7 -2 -26 -12 -11 -28 -20 -37 -20 -8 0 -15 -7 -15 -15 0 -12 -4 -13 -19 -6
-13 7 -24 6 -36 -3 -16 -11 -22 -11 -39 5 -22 21 -36 24 -36 9 0 -5 7 -10 15
-10 30 0 14 -18 -37 -43 -47 -23 -75 -30 -153 -40 -11 -1 -26 -7 -34 -11 -11
-7 -13 -4 -9 12 5 17 -2 25 -34 41 l-41 20 29 7 c17 4 29 3 32 -4 2 -7 15 -4
35 9 18 10 42 19 55 19 12 0 38 7 57 14 40 17 45 43 15 69 -11 9 -20 13 -20 8
0 -5 -13 -12 -29 -16 -16 -3 -37 -15 -46 -25 -12 -14 -25 -17 -51 -13 -22 4
-34 2 -34 -6 0 -6 -9 -11 -20 -11 -11 0 -20 -4 -20 -10 0 -5 -5 -10 -11 -10
-7 0 -20 -10 -30 -21 -16 -18 -21 -20 -34 -9 -14 12 -15 10 -10 -13 5 -17 3
-27 -4 -27 -6 0 -11 -7 -11 -15 0 -25 -56 -71 -85 -70 -31 2 -76 51 -67 75 5
12 3 13 -10 2 -12 -10 -22 -9 -52 3 -20 8 -36 22 -36 29 0 19 -50 35 -78 25
-12 -5 -29 -6 -37 -3 -12 5 -15 -5 -15 -57 0 -40 4 -59 9 -50 6 10 10 10 16 1
4 -6 18 -15 31 -20 15 -6 22 -15 18 -25 -3 -8 -11 -12 -17 -8 -6 4 -7 1 -3 -6
5 -7 15 -10 25 -6 12 4 13 3 5 -5 -7 -7 -40 -10 -84 -8 -77 3 -77 3 -101 64
-7 17 -25 36 -40 43 -14 6 -37 21 -49 31 -32 28 -68 26 -72 -2 -2 -17 5 -27
27 -39 36 -19 107 -44 118 -41 4 1 6 -12 5 -29 l-2 -31 -56 5 c-30 3 -64 8
-76 12 -13 4 -27 1 -36 -9 -21 -20 -223 -24 -593 -11 -1029 37 -1412 -19
-2068 -301 -187 -81 -206 -90 -240 -123 -93 -86 -84 -125 156 -651 173 -381
223 -509 200 -511 -4 0 -18 -2 -29 -4 -12 -3 -29 3 -38 14 -14 15 -26 18 -59
14 -23 -3 -43 -7 -45 -8 -9 -8 23 -85 34 -85 8 0 28 -9 46 -20 18 -11 27 -20
21 -20 -7 0 -13 -7 -13 -15 0 -22 -9 -19 -41 14 -21 22 -30 27 -38 17 -7 -8
-2 -17 17 -30 29 -19 55 -63 46 -77 -3 -5 -1 -9 5 -9 20 0 3 -35 -20 -40 -33
-8 -3 -19 37 -14 28 4 27 3 -6 -10 -41 -17 -61 -20 -40 -6 12 8 11 10 -7 10
-17 0 -21 4 -16 18 6 15 5 15 -12 -1 -15 -16 -16 -20 -4 -28 12 -7 11 -9 -2
-9 -9 0 -19 3 -23 7 -3 4 -14 8 -24 9 -81 8 -152 16 -177 20 -16 3 -46 7 -65
9 -19 2 -53 6 -75 9 -147 17 -160 18 -150 8 6 -5 44 -20 85 -32 41 -12 97 -31
123 -41 26 -11 51 -18 56 -15 4 3 18 -5 30 -18 25 -26 15 -35 -32 -30 -15 1
-25 -2 -22 -7 4 -5 11 -9 17 -9 6 0 20 -8 31 -17 13 -12 21 -14 24 -7 2 7 26
3 71 -12 37 -12 95 -31 130 -40 34 -10 62 -22 62 -26 0 -4 9 -8 19 -8 21 0 37
-15 24 -23 -5 -2 -2 -2 5 0 7 1 24 -9 38 -24 l26 -28 -21 -17 -21 -17 22 -4
c21 -4 21 -4 -3 -6 -14 0 -34 -10 -43 -20 -9 -10 -25 -17 -35 -14 -10 2 -26
-3 -36 -13 -36 -36 -311 -39 -797 -8 -114 7 -147 2 -130 -19 22 -26 113 -43
290 -52 64 -3 146 -8 182 -11 36 -3 99 -7 140 -9 41 -3 95 -8 120 -12 25 -3
48 -6 51 -5 4 1 29 -10 55 -23 37 -19 44 -26 30 -31 -19 -7 -233 1 -436 17
-163 13 -560 17 -612 6 -73 -15 -35 -61 68 -81 38 -8 150 -17 249 -21 214 -8
428 -22 470 -30 45 -10 91 -15 190 -20 50 -3 102 -10 117 -16 15 -6 34 -9 43
-6 8 4 21 0 29 -8 8 -8 23 -15 33 -15 14 0 15 -2 4 -9 -10 -7 -7 -9 12 -8 14
1 23 5 20 10 -2 4 3 7 11 7 9 0 16 -4 16 -9 0 -5 9 -11 20 -14 11 -3 18 -1 14
4 -3 5 -1 9 5 9 18 0 23 -20 7 -26 -9 -3 -14 -9 -12 -13 2 -3 -6 -7 -17 -7
-39 -2 -87 -11 -93 -16 -3 -4 -18 -2 -34 2 -16 4 -30 7 -32 5 -2 -1 -56 -6
-122 -9 -65 -4 -129 -12 -143 -17 -13 -5 -27 -8 -31 -8 -4 1 -16 1 -27 0 -17
-1 -18 -3 -5 -11 13 -9 13 -10 0 -10 -41 -3 38 -19 88 -19 95 0 261 -19 278
-32 6 -5 63 -12 128 -15 64 -4 119 -11 122 -16 3 -4 11 -8 17 -8 7 0 6 4 -3
10 -11 7 -6 10 20 9 19 0 28 -3 20 -6 -8 -3 -19 -12 -23 -20 -5 -8 -16 -11
-28 -8 -14 5 -17 2 -13 -9 4 -10 -2 -16 -18 -18 -13 -2 -22 -9 -21 -16 2 -6
-3 -12 -10 -12 -7 0 -30 -16 -51 -35 -21 -19 -45 -35 -52 -35 -8 0 -11 -6 -8
-14 4 -10 -6 -20 -31 -30 -21 -9 -54 -32 -74 -51 l-36 -36 37 5 c24 3 37 1 35
-7 -3 -16 86 -34 91 -19 2 7 8 12 14 12 6 0 7 -7 4 -16 -4 -11 -1 -14 12 -12
9 2 16 9 15 15 -2 8 7 9 27 3 22 -6 28 -5 24 2 -5 7 -1 9 9 5 10 -3 17 -3 17
2 0 8 26 16 92 27 14 3 29 0 33 -6 5 -9 -7 -14 -27 -11 -4 0 -5 -6 -2 -14 4
-9 -1 -18 -12 -22 -16 -6 -16 -7 2 -13 17 -6 16 -9 -11 -23 -33 -17 -84 -67
-69 -67 6 0 16 6 24 13 12 10 12 9 1 -5 -7 -10 -21 -18 -31 -18 -10 0 -23 -7
-30 -15 -8 -9 -9 -15 -2 -15 6 0 13 4 16 9 3 5 17 11 31 13 15 3 22 1 18 -5
-4 -6 0 -8 11 -4 12 5 16 3 13 -5 -2 -7 -14 -12 -27 -10 -14 1 -28 -6 -37 -17
-7 -11 -43 -41 -81 -67 -37 -26 -87 -64 -112 -86 -112 -96 -374 -283 -646
-462 -163 -107 -167 -113 -131 -223 14 -43 54 -148 90 -234 74 -177 170 -438
191 -519 8 -30 26 -93 40 -140 47 -160 60 -244 55 -372 0 -10 -7 -18 -15 -18
-8 0 -14 -7 -14 -15 0 -8 5 -15 11 -15 12 0 1 -93 -12 -98 -5 -2 -7 -8 -3 -13
3 -5 -11 -34 -31 -64 -32 -48 -35 -57 -22 -69 8 -9 24 -12 36 -9 18 5 21 1 21
-24 0 -32 23 -54 100 -93 42 -22 390 -146 490 -175 25 -7 88 -26 140 -41 52
-15 106 -36 119 -46 13 -10 42 -21 63 -25 22 -3 46 -12 54 -20 21 -21 17 -5
-7 28 -11 16 -26 29 -33 29 -7 0 -21 8 -32 18 -11 10 -53 36 -94 58 -47 25
-68 40 -57 42 10 2 28 -3 40 -10 19 -13 70 -28 132 -41 11 -2 26 2 33 9 15 17
15 24 -1 24 -24 0 -66 25 -71 42 -2 10 0 18 4 18 5 0 16 8 26 17 11 11 31 17
58 15 22 -1 64 5 91 13 28 7 77 19 110 26 33 7 77 21 97 31 46 22 80 24 72 3
-4 -8 -1 -15 5 -15 6 0 11 5 11 10 0 24 70 92 87 85 8 -2 11 0 8 5 -4 6 5 7
22 4 20 -4 35 0 51 15 21 17 34 19 101 15 43 -2 90 0 105 5 19 8 26 7 27 -2 1
-6 3 -23 5 -37 1 -14 6 -140 10 -280 7 -268 -4 -509 -32 -693 -9 -54 -16 -125
-17 -158 -2 -53 1 -63 22 -80 33 -27 86 -25 116 6 32 31 32 68 3 228 -22 116
-23 145 -22 580 1 421 2 463 20 517 19 59 27 70 39 50 3 -5 11 -10 16 -10 6 0
7 5 4 10 -3 6 0 10 8 10 23 0 30 -94 31 -418 1 -235 4 -294 15 -301 21 -13 50
-1 53 23 2 11 2 145 0 296 -5 279 2 435 19 424 5 -3 9 -1 9 5 0 16 33 18 63 3
26 -13 27 -15 28 -105 1 -139 10 -191 33 -195 38 -8 46 23 46 180 l0 147 30
31 c34 35 71 39 100 10 23 -23 26 -40 8 -40 -10 0 -10 -2 0 -9 26 -16 41 -466
22 -636 -5 -44 -13 -126 -16 -182 -7 -99 -6 -102 18 -126 59 -59 150 -39 178
41 12 36 12 51 -3 129 -30 162 -40 301 -33 473 8 193 13 247 28 277 10 21 12
21 23 6 11 -15 14 -11 20 25 3 23 4 46 0 52 -6 10 -5 11 31 15 12 1 26 5 33 9
6 4 11 3 11 -3 0 -6 15 -18 33 -27 17 -9 40 -23 50 -32 19 -17 80 -42 110 -45
9 -1 16 -5 15 -9 -6 -15 47 -42 77 -40 59 5 95 2 95 -8 0 -4 14 -13 31 -20 26
-11 32 -11 40 1 5 8 9 9 9 2 0 -6 18 -14 40 -18 22 -4 46 -13 53 -20 17 -16
49 -1 41 19 -3 8 -1 17 5 21 6 3 11 1 11 -6 0 -10 3 -10 12 -1 9 9 9 15 0 24
-7 7 -12 9 -12 5 0 -4 -9 -3 -20 3 -16 8 -24 6 -41 -11 -21 -21 -21 -21 -56
-3 -20 11 -38 27 -41 36 -2 10 -9 15 -15 11 -7 -4 -8 5 -4 25 4 19 2 32 -3 32
-6 0 -10 4 -10 9 0 10 10 7 115 -28 33 -11 87 -23 120 -25 63 -4 175 -41 175
-57 0 -5 9 -9 20 -9 32 0 23 14 -30 49 -65 42 -68 64 -6 46 39 -12 45 -12 50
1 4 10 13 13 26 9 11 -3 20 -2 20 4 0 5 -26 19 -57 31 -32 12 -60 25 -63 29
-8 12 -87 51 -104 51 -8 0 -18 5 -21 10 -7 11 32 7 95 -10 42 -12 66 -13 56
-3 -7 8 -162 43 -211 48 -65 7 -116 18 -121 26 -3 5 -21 9 -39 9 -26 0 -33 3
-29 15 4 9 0 15 -10 15 -9 0 -16 4 -16 9 0 9 12 12 85 26 35 7 156 7 162 1 3
-2 13 4 23 14 17 17 31 19 107 15 48 -3 96 -5 106 -5 9 0 17 -4 17 -10 0 -5
-8 -10 -17 -11 -11 0 -5 -5 12 -11 17 -6 33 -16 37 -22 4 -6 8 -7 8 -2 0 5 6
3 14 -3 10 -9 25 -9 58 -1 30 8 61 8 96 2 50 -9 67 -2 40 15 -25 15 -112 43
-136 43 -22 0 -23 2 -11 17 12 15 12 16 -5 10 -12 -5 -36 2 -70 21 -28 16 -59
28 -68 26 -10 -1 -18 2 -18 6 0 5 -10 11 -22 13 -13 2 20 3 73 1 241 -9 1006
-158 1582 -308 148 -39 210 -43 298 -22 81 19 120 45 147 96 18 36 22 57 19
100 -4 60 -111 365 -196 562 -28 64 -53 130 -57 145 -3 15 -17 53 -31 83 -14
30 -36 84 -49 120 -78 206 -291 691 -400 908 -34 67 -56 118 -49 112 17 -14
101 3 126 26 11 10 18 25 17 33 -1 9 1 21 5 27 10 17 -13 32 -61 40 -28 4 -42
3 -42 -5 0 -19 -27 -12 -58 13 -46 40 -282 163 -363 190 -69 23 -120 30 -293
41 -72 4 -82 7 -71 24 9 16 45 33 45 22 0 -5 -8 -11 -17 -13 -10 -2 -13 -6 -8
-9 15 -9 77 20 69 32 -4 8 -9 7 -15 -2 -8 -12 -11 -11 -19 1 -6 10 -6 16 3 19
7 2 18 11 26 20 12 14 12 14 6 -6 -3 -13 -2 -23 3 -23 16 0 62 41 62 56 0 17
-5 17 -30 2 -16 -11 -22 -9 -33 7 -13 16 -12 21 2 35 27 27 78 60 84 54 3 -4
20 4 37 16 21 15 30 29 28 43 -4 24 -28 36 -28 13 0 -9 -4 -16 -10 -16 -11 0
-1 32 14 42 7 5 6 8 -3 8 -10 0 -8 7 8 21 17 16 26 18 34 10 16 -16 32 -14 18
2 -6 8 -8 17 -4 20 3 4 1 7 -6 7 -6 0 3 15 21 33 18 18 51 53 73 78 40 45 122
113 140 116 6 1 19 5 29 9 14 5 17 4 12 -4 -4 -7 -1 -12 8 -12 8 0 17 -6 19
-12 4 -10 6 -9 6 1 1 11 4 11 16 1 13 -11 18 -10 30 6 20 27 18 36 -6 29 -13
-5 -19 -3 -15 3 3 5 -8 12 -26 16 -30 6 -31 7 -13 26 17 19 17 20 -1 22 -10 0
-25 1 -31 1 -7 -1 -13 3 -13 8 0 10 15 12 78 11 33 -1 42 3 38 13 -6 16 28 30
45 19 7 -4 9 -3 6 3 -5 9 96 122 116 131 4 1 15 6 24 9 27 10 54 36 63 60 6
14 21 24 44 29 35 6 36 7 27 53 -1 2 -13 -5 -28 -14 -24 -16 -26 -16 -20 0 4
9 7 18 7 20 0 7 209 185 217 185 5 0 19 9 31 21 23 20 131 74 144 71 15 -3
128 111 158 159 30 49 30 50 6 32 -14 -10 -26 -21 -26 -26 0 -9 -62 -66 -73
-67 -4 0 -18 -9 -30 -21 -24 -23 -97 -63 -97 -54 0 4 19 28 42 55 26 31 47 46
57 43 13 -4 13 -3 2 5 -11 8 -8 13 14 28 40 26 113 129 121 169 10 56 -3 89
-43 110 -51 28 -116 25 -149 -6 -39 -37 -45 -54 -35 -99 8 -38 6 -44 -22 -82
-18 -23 -41 -46 -52 -52 -10 -6 -37 -22 -58 -34 -22 -13 -48 -22 -58 -19 -12
3 -19 0 -19 -9 0 -8 -7 -14 -15 -14 -7 0 -18 -6 -22 -13 -14 -22 -110 -68
-128 -61 -12 5 -16 2 -13 -12 2 -12 -3 -19 -15 -20 -13 -1 -13 -1 -2 3 12 4
13 8 5 18 -9 11 -3 18 29 35 23 11 41 27 41 34 0 8 19 29 42 48 49 38 94 87
123 132 11 17 27 37 37 44 10 7 16 18 12 23 -3 6 3 13 14 16 12 3 18 11 16 18
-6 16 90 121 146 160 39 27 41 28 55 9 13 -17 14 -14 15 33 0 35 -5 57 -16 68
-10 9 -26 33 -37 53 -10 20 -26 50 -34 65 -8 15 -12 34 -9 42 3 9 -1 15 -9 15
-11 0 -15 12 -15 48 0 45 13 75 49 112 16 17 71 129 71 147 0 6 8 31 18 55 27
62 35 98 21 98 -6 0 -14 -10 -17 -22 -10 -38 -71 -147 -115 -206 l-42 -55 -6
38 c-12 73 26 235 91 389 73 173 74 208 5 260 -18 14 -63 54 -99 89 -138 133
-360 211 -526 186 -113 -17 -170 -18 -170 -2 0 7 -5 13 -11 13 -5 0 -8 -4 -5
-9 4 -5 4 -16 1 -23 -5 -11 -16 -6 -44 21 -65 61 -91 76 -91 52 0 -18 12 -41
19 -37 4 3 15 -8 26 -24 11 -16 29 -32 40 -35 16 -5 10 -10 -34 -31 -30 -13
-71 -27 -91 -30 -35 -6 -38 -4 -43 22 -3 16 -1 36 4 45 10 20 -19 49 -76 75
-22 9 -62 32 -90 49 -82 52 -118 73 -162 97 -24 12 -43 26 -43 30 0 4 -6 8
-14 8 -12 0 -110 43 -159 71 -22 12 -99 19 -144 12z m219 -80 c2 -5 25 -19 51
-33 27 -14 54 -32 60 -40 9 -12 9 -13 -3 -2 -8 6 -22 12 -33 12 -24 0 -117 40
-117 50 0 5 -8 11 -17 13 -10 3 -1 5 19 6 20 0 38 -2 40 -6z m145 -115 c-3 -8
-6 -5 -6 6 -1 11 2 17 5 13 3 -3 4 -12 1 -19z m53 -28 c14 -11 20 -20 14 -20
-7 0 -22 9 -35 20 -31 25 -12 26 21 0z m527 -116 c-3 -3 -12 -4 -19 -1 -8 3
-5 6 6 6 11 1 17 -2 13 -5z m277 -268 c-90 -284 -111 -700 -49 -941 l16 -58
-73 -76 c-40 -42 -127 -136 -193 -210 -552 -618 -942 -1028 -1342 -1412 -164
-158 -327 -313 -363 -346 -36 -33 -130 -120 -210 -194 -258 -239 -757 -681
-824 -730 l-39 -29 59 0 c143 0 424 43 789 122 642 137 1249 382 1639 663 78
56 96 64 96 44 0 -6 24 -52 54 -103 219 -372 466 -1009 586 -1510 20 -84 80
-372 80 -385 0 -4 -51 18 -112 49 -361 177 -803 291 -1398 361 -246 30 -735
32 -1000 5 -543 -54 -1063 -189 -1503 -391 -236 -109 -550 -291 -675 -392 -24
-20 -45 -34 -47 -32 -1 2 -13 54 -25 114 -63 315 -277 959 -402 1209 -16 32
-28 59 -26 60 2 2 62 38 133 81 266 160 539 345 810 550 487 368 762 605 1490
1286 391 366 1160 1157 1143 1175 -3 2 -25 0 -49 -6 -24 -6 -125 -26 -224 -46
-955 -188 -1865 -548 -2244 -886 -17 -16 -34 -28 -39 -28 -4 0 -20 53 -36 118
-105 434 -300 981 -451 1266 -14 26 -25 49 -25 52 0 3 48 28 108 56 461 217
870 277 1777 264 693 -9 1184 14 1550 74 323 53 722 164 950 263 44 19 83 35
86 36 4 1 -4 -32 -17 -73z m-1214 4 c0 -5 -4 -10 -10 -10 -5 0 -10 5 -10 10 0
6 5 10 10 10 6 0 10 -4 10 -10z m-650 -80 c0 -5 -4 -10 -10 -10 -5 0 -10 5
-10 10 0 6 5 10 10 10 6 0 10 -4 10 -10z m2265 -1460 c-4 -6 -19 -16 -33 -21
-18 -7 -22 -13 -14 -18 20 -12 -76 -134 -148 -189 -121 -91 -190 -129 -190
-102 0 6 -4 10 -10 10 -5 0 -7 -7 -4 -15 5 -11 -1 -15 -21 -15 l-27 0 32 40
c23 29 37 39 50 35 10 -3 22 0 26 6 5 9 2 10 -9 6 -23 -9 -21 6 4 29 12 10 30
18 40 16 13 -2 19 3 19 15 0 10 15 28 33 40 17 12 52 42 77 67 40 39 169 119
179 110 1 -1 0 -8 -4 -14z m-4915 -139 c0 -4 -9 -7 -20 -8 -19 -2 -27 16 -13
30 6 7 33 -11 33 -22z m4440 -415 c0 -3 -4 -8 -10 -11 -5 -3 -10 -1 -10 4 0 6
5 11 10 11 6 0 10 -2 10 -4z m-43 -48 c-3 -8 -6 -5 -6 6 -1 11 2 17 5 13 3 -3
4 -12 1 -19z m-21 -10 c5 -7 3 -8 -5 -4 -7 5 -22 0 -34 -11 l-22 -18 19 23
c21 25 32 27 42 10z m-92 -66 c3 -5 -5 -15 -18 -22 -19 -9 -28 -10 -42 0 -15
9 -15 10 -2 6 9 -2 22 2 28 10 14 16 26 18 34 6z m-4179 -52 c3 -5 1 -10 -4
-10 -6 0 -11 5 -11 10 0 6 2 10 4 10 3 0 8 -4 11 -10z m3922 -114 c-38 -46
-164 -142 -174 -132 -3 3 -14 1 -24 -5 -15 -7 -17 -6 -13 5 3 8 27 25 52 37
26 13 65 40 87 60 57 54 99 88 104 83 2 -2 -13 -23 -32 -48z m-3935 -108 c-5
-5 -17 -6 -26 -2 -13 5 -14 9 -5 14 16 11 43 0 31 -12z m3564 -515 c-3 -8 -1
-11 4 -8 6 3 10 -1 10 -9 0 -9 -6 -16 -12 -16 -10 0 -9 -3 1 -9 10 -7 8 -12
-10 -25 -13 -9 -32 -16 -42 -16 -10 0 -15 -4 -12 -10 3 -5 0 -10 -8 -10 -8 0
-24 -9 -37 -20 -13 -11 -29 -20 -37 -20 -7 0 -13 -4 -13 -10 0 -5 -7 -10 -15
-10 -8 0 -15 5 -15 11 0 7 -11 8 -30 4 -37 -8 -38 -3 -4 20 16 10 23 12 18 4
-10 -17 56 29 81 57 11 12 35 29 53 38 17 9 32 21 32 27 0 6 -5 7 -12 3 -6 -4
-9 -3 -5 2 3 5 17 10 32 10 19 2 25 -2 21 -13z m-1 -149 c-11 -8 -26 -12 -34
-9 -9 3 -12 3 -8 -1 10 -11 -13 -34 -34 -34 -11 0 -19 -4 -19 -10 0 -5 -7 -10
-15 -10 -9 0 -27 -7 -40 -16 -14 -9 -25 -14 -25 -11 0 10 130 98 138 93 4 -2
14 -1 22 5 24 15 37 10 15 -7z m-205 -109 c-30 -17 -40 -18 -40 -6 0 8 22 16
55 19 6 1 -1 -5 -15 -13z m-3143 -27 c-3 -8 -6 -5 -6 6 -1 11 2 17 5 13 3 -3
4 -12 1 -19z m2351 -1685 c-10 -2 -26 -2 -35 0 -10 3 -2 5 17 5 19 0 27 -2 18
-5z m354 -190 c-6 -2 -10 -8 -7 -13 3 -4 -4 -6 -15 -3 -29 8 -24 23 8 22 15 0
21 -3 14 -6z m-1289 -363 c-3 -11 -7 -20 -9 -20 -2 0 -4 9 -4 20 0 11 4 20 9
20 5 0 7 -9 4 -20z m-434 -96 c31 -33 15 -45 -42 -32 -62 14 -79 27 -37 28 19
1 29 4 21 7 -11 5 -11 7 0 14 22 14 32 11 58 -17z m-404 -124 c16 -7 16 -9 3
-9 -9 -1 -20 -13 -26 -29 -13 -38 -101 -67 -162 -53 -23 5 -44 11 -46 14 -9 9
67 49 128 67 72 21 76 22 103 10z m200 0 c-3 -5 -10 -10 -16 -10 -5 0 -9 5 -9
10 0 6 7 10 16 10 8 0 12 -4 9 -10z m-655 -254 c0 -3 -4 -8 -10 -11 -5 -3 -10
-1 -10 4 0 6 5 11 10 11 6 0 10 -2 10 -4z m1630 -176 c0 -5 -5 -10 -11 -10 -5
0 -7 5 -4 10 3 6 8 10 11 10 2 0 4 -4 4 -10z m-638 -680 c3 -17 1 -33 -4 -36
-4 -3 -8 11 -8 30 0 44 6 47 12 6z"/>
<path d="M7033 8175 c-214 -86 -568 -171 -878 -210 -302 -37 -360 -39 -1290
-40 -1000 -1 -999 -1 -1303 -60 -203 -39 -492 -137 -492 -166 0 -7 11 -27 25
-44 104 -137 341 -775 374 -1006 l6 -45 124 68 c311 169 784 359 1214 487 299
90 747 189 1022 226 199 27 405 52 405 49 0 -4 -202 -268 -251 -329 -55 -67
-298 -333 -545 -595 -316 -336 -730 -738 -999 -970 -67 -58 -189 -163 -271
-235 -494 -428 -1082 -863 -1471 -1087 -68 -39 -123 -74 -123 -77 0 -4 13 -40
29 -81 91 -238 242 -720 285 -912 l21 -98 95 58 c520 319 1219 558 1863 637
742 91 1669 -7 2341 -249 55 -19 101 -34 102 -33 2 2 -14 72 -36 157 -53 210
-159 552 -230 742 -79 210 -250 596 -287 647 -2 2 -11 -3 -20 -11 -37 -32
-269 -163 -406 -228 -440 -210 -915 -359 -1497 -471 -269 -52 -444 -70 -737
-77 -250 -6 -271 -6 -255 9 9 9 103 87 207 174 251 209 629 534 786 676 608
549 1272 1195 1614 1568 215 236 423 466 551 612 l111 126 -15 74 c-12 57 -16
136 -16 339 0 235 2 273 20 338 11 39 18 72 15 71 -3 -1 -43 -16 -88 -34z
m-299 -524 c26 -29 18 -82 -16 -101 -25 -13 -31 -13 -55 0 -34 19 -42 61 -18
96 19 30 64 32 89 5z m93 -2933 c18 -14 16 -59 -3 -86 -32 -46 -114 -18 -114
39 0 55 73 84 117 47z"/>
<path d="M3588 6520 c-2 -5 -12 -11 -23 -13 -11 -1 -26 -6 -32 -10 -7 -5 -13
-6 -13 -3 0 11 -106 -34 -127 -54 -20 -20 -23 -20 -23 -4 0 9 -2 15 -5 12 -4
-3 -3 -18 1 -33 5 -20 9 -23 15 -13 7 10 10 8 15 -9 4 -14 11 -20 22 -16 11 5
13 2 8 -8 -5 -10 -3 -9 6 1 7 9 29 25 48 37 19 12 58 39 86 60 41 31 49 41 38
50 -7 7 -14 8 -16 3z"/>
<path d="M2989 4563 c-13 -16 -12 -17 4 -4 16 13 21 21 13 21 -2 0 -10 -8 -17
-17z"/>
<path d="M2899 4505 c-1 -5 -1 -13 -1 -16 1 -4 -6 -6 -16 -5 -9 0 -16 -5 -14
-12 1 -8 -2 -11 -7 -7 -6 3 -77 -36 -158 -88 -81 -51 -169 -106 -195 -122 -26
-16 -44 -33 -41 -39 3 -5 1 -6 -5 -2 -8 5 -83 -29 -82 -37 0 -1 16 -33 35 -72
18 -38 34 -61 34 -50 1 18 2 18 17 -4 9 -13 20 -37 24 -55 4 -17 10 -42 14
-56 l7 -25 -15 25 c-19 32 -20 13 -1 -20 8 -14 14 -19 15 -12 0 23 18 12 29
-18 5 -16 7 -30 4 -30 -3 0 0 -6 6 -14 6 -7 10 -31 9 -53 -1 -46 31 -145 45
-136 6 3 7 1 3 -5 -10 -16 4 -62 18 -59 6 1 12 -13 12 -33 1 -20 22 -101 47
-180 54 -173 99 -341 123 -468 10 -51 21 -87 24 -80 3 7 11 14 18 16 8 1 66
38 130 81 200 133 483 284 707 376 69 28 118 57 60 35 -22 -8 -27 -8 -19 0 6
6 29 13 50 15 44 4 100 23 72 24 -11 1 -15 6 -12 15 4 10 -6 14 -41 14 -25 1
-49 3 -54 6 -4 3 -30 -6 -57 -19 -27 -14 -60 -24 -74 -24 l-25 0 25 14 c50 29
9 14 -107 -39 -173 -78 -173 -78 -166 -89 3 -6 1 -7 -5 -3 -17 10 -249 -112
-394 -207 -31 -22 -33 -19 -53 69 -30 133 -119 433 -127 428 -4 -3 -6 1 -3 8
7 19 -21 94 -29 77 -3 -8 -4 -4 -2 9 6 30 -38 162 -47 142 -4 -9 -5 -5 -3 8 2
12 1 22 -3 22 -5 0 -8 13 -9 29 -1 28 -17 69 -31 81 -3 3 -17 22 -31 42 -14
21 -28 38 -32 38 -5 0 -8 9 -8 20 0 12 -7 31 -16 45 -13 20 -13 30 -3 64 7 22
16 38 20 35 12 -7 91 41 82 50 -4 4 0 4 10 0 11 -4 19 0 23 10 3 9 9 14 13 12
3 -2 15 2 26 10 10 8 15 14 9 14 -5 0 18 17 51 39 34 21 79 55 102 77 43 41
47 44 62 44 5 0 11 9 14 20 3 11 13 20 22 20 31 0 9 25 -25 27 -19 2 -37 9
-42 16 -4 6 -8 8 -9 2z m-252 -647 c-3 -8 -6 -5 -6 6 -1 11 2 17 5 13 3 -3 4
-12 1 -19z m20 -380 c-3 -8 -6 -5 -6 6 -1 11 2 17 5 13 3 -3 4 -12 1 -19z m32
-88 c0 -10 -3 -8 -9 5 -12 27 -12 43 0 25 5 -8 9 -22 9 -30z m20 -63 c0 -21
-1 -21 -9 -2 -12 28 -12 37 0 30 6 -3 10 -16 9 -28z m797 8 c-11 -8 -25 -15
-30 -15 -6 1 0 7 14 15 32 19 40 18 16 0z m-67 -29 c-10 -9 -69 -36 -69 -32 0
7 52 35 64 36 5 0 7 -2 5 -4z"/>
<path d="M2990 4502 c0 -5 7 -9 15 -9 8 0 12 4 9 9 -3 4 -9 8 -15 8 -5 0 -9
-4 -9 -8z"/>
<path d="M3825 3475 c-25 -12 -26 -14 -5 -9 28 7 60 23 45 23 -5 0 -23 -6 -40
-14z"/>
<path d="M3705 3429 c-22 -10 -29 -16 -15 -13 28 7 80 33 65 33 -5 0 -28 -9
-50 -20z"/>
<path d="M6475 8970 c-3 -5 -4 -14 0 -19 8 -14 65 -41 84 -40 13 0 13 2 2 6
-8 3 -26 19 -39 34 -25 31 -37 35 -47 19z"/>
<path d="M6647 8858 c-8 -30 19 -58 54 -58 32 0 46 28 29 60 -16 29 -76 28
-83 -2z"/>
<path d="M5695 8811 c-7 -12 12 -24 25 -16 11 7 4 25 -10 25 -5 0 -11 -4 -15
-9z"/>
<path d="M6990 8789 c0 -17 27 -45 35 -37 3 3 -3 16 -14 29 -16 19 -20 20 -21
8z"/>
<path d="M5542 8768 c-22 -22 -14 -64 13 -76 37 -17 59 -15 81 9 17 19 18 21
1 30 -9 6 -17 16 -17 23 0 25 -57 35 -78 14z"/>
<path d="M7122 8725 c-7 -15 -10 -31 -7 -36 8 -12 52 -12 60 1 3 6 2 10 -4 10
-5 0 -11 10 -13 22 -4 31 -23 33 -36 3z"/>
<path d="M5825 8620 c3 -5 11 -10 16 -10 6 0 7 5 4 10 -3 6 -11 10 -16 10 -6
0 -7 -4 -4 -10z"/>
<path d="M6515 8601 c-6 -11 9 -23 19 -14 9 9 7 23 -3 23 -6 0 -12 -4 -16 -9z"/>
<path d="M5987 8570 c-17 -20 -15 -46 3 -35 5 3 11 1 14 -4 8 -12 76 9 73 23
-2 14 -37 35 -57 36 -9 0 -23 -9 -33 -20z"/>
<path d="M5110 8555 c0 -8 -7 -15 -16 -15 -28 0 -1 -23 70 -60 37 -18 66 -37
66 -42 0 -4 9 -8 19 -8 11 0 21 -5 23 -10 2 -6 12 -11 23 -11 59 1 69 10 37
33 -10 7 -21 20 -24 28 -8 22 -80 55 -140 65 -24 4 -38 11 -38 20 0 8 -4 15
-10 15 -5 0 -10 -7 -10 -15z"/>
<path d="M6510 8540 c0 -11 4 -20 8 -20 4 0 8 9 9 20 1 11 -2 20 -8 20 -5 0
-9 -9 -9 -20z"/>
<path d="M5925 8460 c-3 -5 -1 -10 4 -10 6 0 11 5 11 10 0 6 -2 10 -4 10 -3 0
-8 -4 -11 -10z"/>
<path d="M4995 8450 c-11 -17 18 -42 39 -34 9 4 16 14 14 23 -4 19 -43 27 -53
11z"/>
<path d="M5263 8356 c5 -15 37 -20 49 -8 6 6 -1 11 -22 14 -19 3 -29 1 -27 -6z"/>
<path d="M7990 8275 c-26 -43 -21 -60 24 -81 33 -16 35 -16 64 5 17 12 34 31
37 42 10 30 -30 69 -71 69 -26 0 -36 -7 -54 -35z"/>
<path d="M7828 8114 c-7 -7 2 -44 11 -44 14 0 29 23 24 36 -5 14 -25 19 -35 8z"/>
<path d="M7826 7623 c-3 -4 -6 -15 -6 -25 0 -24 33 -21 38 3 3 17 -21 33 -32
22z"/>
<path d="M7947 7514 c-15 -8 -27 -21 -27 -29 0 -26 12 -45 30 -45 21 0 35 16
44 51 7 34 -10 42 -47 23z"/>
<path d="M8002 7278 c-11 -41 2 -62 29 -47 21 11 25 49 7 67 -19 19 -27 14
-36 -20z"/>
<path d="M2660 7050 c0 -5 5 -10 10 -10 6 0 10 5 10 10 0 6 -4 10 -10 10 -5 0
-10 -4 -10 -10z"/>
<path d="M7444 6834 c-18 -14 -18 -15 4 -4 12 6 22 13 22 15 0 8 -5 6 -26 -11z"/>
<path d="M2600 6740 c6 -11 15 -20 20 -20 16 0 11 27 -6 34 -24 9 -26 8 -14
-14z"/>
<path d="M2077 6702 c-22 -24 -21 -44 3 -70 45 -48 120 -37 120 17 0 57 -86
94 -123 53z"/>
<path d="M2640 6642 c0 -10 33 -42 43 -42 15 0 5 19 -18 34 -14 9 -25 13 -25
8z"/>
<path d="M1825 6570 c28 -12 65 -12 65 0 0 6 -19 10 -42 9 -33 0 -38 -2 -23
-9z"/>
<path d="M2368 6374 c-15 -14 -8 -42 12 -47 13 -3 20 0 20 10 0 8 -4 12 -9 8
-5 -3 -11 4 -13 16 -2 11 -6 17 -10 13z"/>
<path d="M2583 6183 c9 -2 23 -2 30 0 6 3 -1 5 -18 5 -16 0 -22 -2 -12 -5z"/>
<path d="M2605 5520 c3 -5 8 -10 11 -10 2 0 4 5 4 10 0 6 -5 10 -11 10 -5 0
-7 -4 -4 -10z"/>
<path d="M2690 5471 c0 -13 -2 -13 -9 -2 -5 8 -11 9 -15 3 -11 -18 75 -53 108
-44 l28 8 -26 12 c-14 6 -26 16 -26 21 0 5 -13 11 -30 13 -22 3 -30 1 -30 -11z"/>
<path d="M2403 5453 c-7 -3 -13 -8 -13 -13 0 -13 31 -21 47 -11 14 8 14 10 -3
18 -10 6 -25 8 -31 6z"/>
<path d="M2960 5440 c0 -5 5 -10 10 -10 6 0 10 5 10 10 0 6 -4 10 -10 10 -5 0
-10 -4 -10 -10z"/>
<path d="M7372 5413 c-10 -4 -10 -8 -1 -19 15 -18 29 -18 29 0 0 18 -11 25
-28 19z"/>
<path d="M2809 5114 c0 -11 -3 -13 -6 -6 -2 6 -9 12 -14 12 -5 0 -3 -11 3 -25
10 -22 48 -36 48 -17 0 4 10 12 21 17 26 12 27 29 3 34 -12 2 -15 -2 -11 -13
8 -21 -2 -20 -25 1 -17 15 -18 15 -19 -3z"/>
<path d="M2885 4982 c-66 -45 -157 -123 -151 -129 5 -5 65 33 76 48 3 3 32 28
65 54 33 26 62 50 64 52 2 1 2 4 0 6 -2 2 -26 -12 -54 -31z"/>
<path d="M7344 4983 c2 -9 8 -19 14 -21 14 -4 15 0 6 22 -8 21 -23 20 -20 -1z"/>
<path d="M7447 4894 c-8 -14 8 -37 22 -33 8 3 8 10 -2 23 -8 11 -17 15 -20 10z"/>
<path d="M7380 4837 c0 -14 24 -57 32 -57 4 0 8 -11 8 -24 0 -14 4 -27 9 -30
5 -3 7 -24 5 -47 -5 -50 14 -89 61 -126 19 -15 35 -34 35 -40 0 -7 3 -13 8
-13 4 0 26 -19 50 -41 45 -44 67 -50 29 -9 -24 27 -62 83 -59 88 1 1 -9 23
-23 50 -14 26 -25 51 -25 57 0 6 -16 34 -35 62 -19 29 -35 57 -35 62 0 5 -3
11 -8 13 -4 2 -17 16 -30 32 -12 16 -22 26 -22 23z"/>
<path d="M2301 4717 c-13 -6 -33 -24 -44 -38 -17 -24 -18 -30 -6 -55 11 -23
22 -30 52 -32 21 -2 45 2 53 9 8 6 17 9 21 6 7 -7 43 31 43 45 0 15 -22 52
-39 65 -21 16 -50 16 -80 0z"/>
<path d="M1948 4339 c-10 -5 -18 -17 -18 -25 0 -8 4 -13 9 -10 5 4 11 1 13 -6
6 -16 38 -2 38 16 0 10 -6 13 -17 9 -16 -6 -16 -5 -4 10 15 19 5 22 -21 6z"/>
<path d="M1833 4253 c-17 -6 -16 -38 1 -52 22 -18 46 -2 46 30 0 29 -15 36
-47 22z"/>
<path d="M7680 4202 c0 -6 -3 -18 -7 -28 -4 -10 -2 -15 3 -11 5 3 15 -6 22
-21 14 -32 70 -102 82 -102 25 0 14 34 -26 75 -24 26 -44 53 -44 60 0 7 -7 18
-15 25 -9 8 -15 8 -15 2z"/>
<path d="M1940 3980 c-27 -27 -25 -56 5 -85 29 -30 68 -32 95 -5 27 27 25 56
-5 85 -29 30 -68 32 -95 5z"/>
<path d="M7815 3703 c20 -49 97 -184 102 -179 4 4 -107 216 -113 216 -2 0 3
-17 11 -37z"/>
<path d="M2121 3591 c-12 -8 -12 -12 3 -26 20 -20 43 -7 33 19 -7 18 -16 20
-36 7z"/>
<path d="M2306 3368 c-33 -106 -58 -220 -61 -279 -4 -71 -4 -72 5 -19 8 51 59
244 75 281 3 10 2 20 -4 24 -6 3 -13 0 -15 -7z"/>
<path d="M2343 3123 c-27 -5 -29 -16 -7 -34 13 -10 17 -10 25 2 8 12 13 41 7
38 -2 -1 -13 -4 -25 -6z"/>
<path d="M5758 3123 c7 -3 16 -2 19 1 4 3 -2 6 -13 5 -11 0 -14 -3 -6 -6z"/>
<path d="M5775 3081 c2 -9 4 -20 4 -24 1 -8 31 17 31 26 0 3 -9 7 -19 10 -13
3 -18 0 -16 -12z"/>
<path d="M5620 3032 c0 -12 59 -22 66 -10 3 4 -4 8 -15 8 -10 0 -26 3 -35 6
-9 3 -16 2 -16 -4z"/>
<path d="M6097 3003 c-22 -6 -12 -23 14 -23 11 0 17 -4 14 -10 -8 -12 5 -13
24 -1 12 8 12 12 2 25 -14 16 -22 17 -54 9z"/>
<path d="M2203 2938 c-12 -6 -24 -18 -27 -27 -3 -9 -8 -21 -11 -27 -3 -6 6
-26 20 -43 31 -37 64 -40 105 -11 26 19 28 23 18 58 -15 58 -52 76 -105 50z"/>
<path d="M1950 2840 c0 -13 5 -18 14 -14 8 3 12 12 9 20 -8 21 -23 17 -23 -6z"/>
<path d="M5170 2789 c0 -5 5 -7 10 -4 6 3 10 8 10 11 0 2 -4 4 -10 4 -5 0 -10
-5 -10 -11z"/>
<path d="M5685 2780 c3 -5 8 -10 11 -10 2 0 4 5 4 10 0 6 -5 10 -11 10 -5 0
-7 -4 -4 -10z"/>
<path d="M4991 2754 c0 -11 3 -14 6 -6 3 7 2 16 -1 19 -3 4 -6 -2 -5 -13z"/>
<path d="M5090 2751 c0 -5 8 -15 18 -22 9 -7 14 -9 10 -5 -4 5 0 15 10 22 15
12 14 13 -10 14 -16 0 -28 -4 -28 -9z"/>
<path d="M2192 2688 c-9 -9 -8 -16 5 -30 19 -21 34 -23 51 -6 9 9 8 16 -5 30
-19 21 -34 23 -51 6z"/>
<path d="M5220 2686 c0 -9 5 -16 10 -16 6 0 10 4 10 9 0 6 -4 13 -10 16 -5 3
-10 -1 -10 -9z"/>
<path d="M6068 2663 c-23 -6 -23 -16 3 -39 20 -18 21 -18 35 1 24 32 6 50 -38
38z"/>
<path d="M5192 2638 c3 -7 13 -15 22 -16 12 -3 17 1 14 10 -3 7 -13 15 -22 16
-12 3 -17 -1 -14 -10z"/>
<path d="M3945 2600 c-3 -5 -1 -10 4 -10 6 0 11 5 11 10 0 6 -2 10 -4 10 -3 0
-8 -4 -11 -10z"/>
<path d="M5510 2580 c0 -5 5 -10 10 -10 6 0 10 5 10 10 0 6 -4 10 -10 10 -5 0
-10 -4 -10 -10z"/>
<path d="M3835 2570 c3 -5 12 -10 20 -10 7 0 16 -8 18 -17 3 -11 5 -7 6 10 1
23 -3 27 -25 27 -14 0 -23 -4 -19 -10z"/>
<path d="M5447 2563 c-8 -7 11 -33 24 -33 5 0 9 9 9 20 0 19 -20 27 -33 13z"/>
<path d="M3905 2540 c-3 -5 -1 -10 4 -10 6 0 11 5 11 10 0 6 -2 10 -4 10 -3 0
-8 -4 -11 -10z"/>
<path d="M2377 2455 c-15 -11 -16 -17 -6 -39 15 -33 43 -30 47 5 4 34 -17 52
-41 34z"/>
<path d="M4040 2410 c-13 -8 -13 -11 2 -27 21 -20 45 -5 35 21 -7 18 -16 20
-37 6z"/>
<path d="M3370 2349 c0 -5 5 -7 10 -4 6 3 10 8 10 11 0 2 -4 4 -10 4 -5 0 -10
-5 -10 -11z"/>
<path d="M2620 2291 c-15 -38 1 -71 35 -71 52 0 66 72 18 91 -36 13 -39 12
-53 -20z"/>
<path d="M2975 2220 c-3 -5 1 -10 9 -10 9 0 16 5 16 10 0 6 -4 10 -9 10 -6 0
-13 -4 -16 -10z"/>
<path d="M3515 2146 c-39 -28 14 -67 54 -39 27 19 26 27 -4 41 -32 15 -27 15
-50 -2z"/>
<path d="M3255 2000 c-4 -6 -3 -16 3 -22 12 -12 42 -4 42 12 0 6 -5 8 -11 4
-6 -3 -15 -1 -19 6 -6 9 -9 9 -15 0z"/>
</g>
</svg>
