<?xml version="1.0" standalone="no"?>
<!DOCTYPE svg PUBLIC "-//W3C//DTD SVG 20010904//EN"
 "http://www.w3.org/TR/2001/REC-SVG-20010904/DTD/svg10.dtd">
<svg version="1.0" xmlns="http://www.w3.org/2000/svg"
 width="1280.000000pt" height="1280.000000pt" viewBox="0 0 1280.000000 1280.000000"
 preserveAspectRatio="xMidYMid meet">

<g transform="translate(0.000000,1280.000000) scale(0.100000,-0.100000)"
fill="#000000" stroke="none">
<path d="M6155 12730 c-817 -55 -1424 -189 -2108 -464 -393 -158 -901 -424
-1099 -575 -33 -25 -79 -57 -102 -69 -67 -39 -329 -240 -511 -393 -327 -275
-757 -728 -1002 -1054 -318 -423 -509 -766 -800 -1440 -149 -346 -306 -919
-377 -1375 -78 -502 -90 -1149 -30 -1680 31 -280 91 -607 154 -840 137 -507
287 -908 459 -1230 11 -19 42 -82 69 -140 98 -204 364 -624 562 -885 846
-1121 2030 -1923 3387 -2295 301 -83 700 -158 998 -189 430 -45 910 -45 1340
0 1016 106 2034 478 2885 1057 883 599 1611 1423 2082 2357 100 199 209 440
232 513 8 26 33 90 54 142 149 363 298 973 356 1460 37 308 49 508 49 840 0
348 -6 455 -49 775 -144 1090 -559 2096 -1231 2988 -795 1054 -1913 1835
-3189 2227 -435 134 -861 216 -1309 254 -226 19 -649 27 -820 16z m2644 -2332
c6 -62 16 -165 21 -228 27 -292 120 -736 221 -1053 10 -34 12 -30 -88 -197
-250 -420 -736 -1094 -1163 -1613 -58 -71 -118 -145 -135 -166 -81 -101 -343
-398 -516 -586 -360 -390 -853 -870 -1219 -1185 -35 -30 -87 -75 -115 -100
-206 -181 -563 -472 -620 -506 -10 -5 -16 -15 -12 -21 5 -7 27 -7 74 3 38 7
133 22 213 34 80 12 199 33 265 47 66 14 149 31 185 39 59 12 173 43 390 104
104 29 671 219 684 229 6 4 40 18 76 30 36 13 79 29 95 36 17 7 75 32 130 56
357 151 759 350 977 485 40 24 77 44 83 44 7 0 59 -30 116 -66 57 -36 115 -72
129 -80 14 -8 39 -23 55 -34 17 -10 62 -35 101 -54 39 -19 76 -41 82 -48 6 -8
52 -108 102 -223 50 -116 98 -223 105 -240 7 -16 34 -79 60 -140 25 -60 50
-119 55 -130 5 -11 16 -38 24 -60 8 -22 30 -80 51 -130 149 -368 250 -662 375
-1095 50 -175 61 -216 95 -355 20 -82 44 -184 54 -225 21 -86 17 -91 -46 -65
-56 25 -297 114 -378 140 -255 84 -489 144 -760 195 -181 33 -213 39 -250 44
-22 3 -89 12 -150 20 -317 45 -638 66 -1010 66 -274 0 -627 -14 -745 -30 -41
-5 -131 -16 -200 -25 -178 -22 -250 -34 -555 -99 -223 -48 -670 -189 -840
-266 -22 -10 -84 -35 -189 -75 -38 -15 -77 -31 -85 -36 -9 -5 -45 -20 -81 -35
-221 -89 -661 -336 -888 -498 -47 -33 -87 -55 -91 -50 -5 5 -30 90 -56 188
-26 99 -51 189 -55 200 -5 12 -18 55 -30 96 -75 263 -223 692 -285 827 -8 17
-15 35 -15 41 0 8 -44 114 -96 229 -8 17 -14 34 -14 38 0 4 -14 37 -31 73 -17
37 -39 87 -49 112 -17 43 -76 168 -181 387 -27 56 -49 106 -49 111 0 6 71 59
158 119 213 148 1090 792 1237 909 17 14 35 28 40 32 114 83 363 276 520 402
33 26 116 93 185 148 107 86 243 200 504 426 281 242 727 675 950 921 60 66
139 152 176 190 214 225 627 710 829 973 23 31 74 96 112 144 73 92 84 115 47
103 -53 -16 -247 -68 -298 -80 -30 -7 -75 -18 -100 -24 -25 -7 -90 -23 -145
-37 -594 -150 -1279 -369 -1670 -532 -366 -153 -661 -312 -944 -507 -38 -27
-51 -25 -51 8 -1 36 -76 326 -147 567 -14 47 -31 108 -38 135 -28 104 -121
389 -195 595 -23 63 -47 133 -54 155 -20 58 -75 207 -86 230 -5 11 -16 38 -23
60 -8 22 -31 84 -51 138 -20 54 -36 102 -36 106 0 16 337 134 517 181 357 93
669 126 1483 155 217 8 593 21 835 30 242 8 447 17 455 20 8 2 83 9 165 15
653 45 1235 159 1650 322 53 21 126 46 136 47 4 1 12 -50 18 -111z"/>
<path d="M8773 10390 c0 -36 2 -50 4 -32 2 17 2 47 0 65 -2 17 -4 3 -4 -33z"/>
<path d="M8585 10262 c-22 -18 -266 -103 -405 -141 -163 -44 -521 -108 -705
-126 -38 -4 -97 -11 -130 -15 -33 -5 -154 -16 -270 -24 -115 -9 -235 -18 -265
-22 -30 -3 -363 -9 -740 -14 -959 -13 -1207 -26 -1510 -76 -98 -17 -282 -57
-335 -73 -16 -5 -50 -15 -75 -21 -122 -30 -360 -113 -360 -125 0 -8 12 -36 26
-62 81 -151 299 -718 384 -998 53 -176 100 -347 111 -405 14 -75 21 -87 41
-66 16 15 254 139 373 193 226 102 663 261 960 348 101 30 461 129 545 150 30
7 116 30 190 50 117 31 266 67 505 121 33 8 94 20 135 29 41 8 91 19 110 25
32 9 124 26 345 65 44 8 108 16 141 18 l62 5 -45 -77 c-84 -141 -269 -415
-381 -564 -604 -799 -1213 -1475 -1736 -1927 -281 -244 -877 -718 -1396 -1113
-543 -413 -845 -632 -1160 -840 -58 -39 -107 -71 -109 -73 -2 -2 19 -49 47
-106 57 -117 65 -135 172 -383 91 -211 260 -635 260 -652 0 -3 13 -43 29 -87
76 -211 159 -492 176 -593 4 -24 8 -43 10 -43 2 0 32 20 67 44 93 64 381 215
573 301 122 54 504 204 620 243 394 132 970 269 1275 303 47 5 144 17 215 26
195 26 1157 26 1395 0 91 -10 203 -22 250 -27 155 -17 324 -40 430 -59 213
-39 268 -51 410 -86 80 -20 163 -41 185 -46 94 -24 287 -83 378 -116 54 -19
100 -33 103 -31 2 3 -7 50 -20 104 -14 54 -37 149 -52 209 -85 357 -323 1038
-491 1405 -14 30 -41 91 -61 135 -19 44 -56 125 -82 180 -25 55 -55 121 -65
147 -16 43 -25 52 -99 94 -44 26 -127 78 -183 116 -56 37 -105 68 -109 68 -4
0 -35 -18 -70 -40 -304 -192 -749 -409 -1242 -604 -226 -90 -660 -230 -867
-281 -105 -25 -208 -50 -230 -56 -128 -32 -389 -75 -535 -89 -263 -25 -710
-24 -694 1 3 6 22 21 42 34 21 13 64 45 97 70 33 25 91 69 129 98 37 29 154
121 260 206 507 408 898 762 1416 1281 408 409 634 654 996 1080 103 122 450
555 484 606 8 12 83 112 165 221 212 282 260 350 387 542 200 302 211 321 199
345 -12 22 -33 92 -56 186 -7 30 -25 100 -39 155 -55 210 -118 571 -142 808
-5 55 -16 69 -39 49z m-295 -797 c18 -21 4 -64 -25 -77 -48 -22 -100 43 -63
80 17 17 73 15 88 -3z m340 -4355 c0 -5 -5 -10 -10 -10 -6 0 -16 -11 -22 -25
-10 -22 -8 -29 12 -50 18 -19 20 -25 8 -25 -16 0 -48 41 -48 62 0 14 39 58 52
58 4 0 8 -4 8 -10z m62 -72 c-7 -7 -12 -8 -12 -2 0 14 12 26 19 19 2 -3 -1
-11 -7 -17z"/>
<path d="M8028 10253 c6 -2 18 -2 25 0 6 3 1 5 -13 5 -14 0 -19 -2 -12 -5z"/>
<path d="M8782 10225 c0 -16 2 -22 5 -12 2 9 2 23 0 30 -3 6 -5 -1 -5 -18z"/>
<path d="M7463 10153 c9 -2 23 -2 30 0 6 3 -1 5 -18 5 -16 0 -22 -2 -12 -5z"/>
<path d="M7313 10143 c15 -2 37 -2 50 0 12 2 0 4 -28 4 -27 0 -38 -2 -22 -4z"/>
<path d="M7033 10113 c9 -2 23 -2 30 0 6 3 -1 5 -18 5 -16 0 -22 -2 -12 -5z"/>
<path d="M7930 10100 c-34 -7 -34 -7 -5 -8 17 0 44 4 60 8 27 7 27 8 5 8 -14
-1 -41 -4 -60 -8z"/>
<path d="M7758 10063 c6 -2 18 -2 25 0 6 3 1 5 -13 5 -14 0 -19 -2 -12 -5z"/>
<path d="M7488 10023 c7 -3 16 -2 19 1 4 3 -2 6 -13 5 -11 0 -14 -3 -6 -6z"/>
<path d="M4883 10013 c9 -2 25 -2 35 0 9 3 1 5 -18 5 -19 0 -27 -2 -17 -5z"/>
<path d="M8812 9990 c0 -19 2 -27 5 -17 2 9 2 25 0 35 -3 9 -5 1 -5 -18z"/>
<path d="M4098 9903 c6 -2 18 -2 25 0 6 3 1 5 -13 5 -14 0 -19 -2 -12 -5z"/>
<path d="M8861 9694 c0 -11 3 -14 6 -6 3 7 2 16 -1 19 -3 4 -6 -2 -5 -13z"/>
<path d="M8772 9470 c0 -14 2 -19 5 -12 2 6 2 18 0 25 -3 6 -5 1 -5 -13z"/>
<path d="M6968 8933 c7 -3 16 -2 19 1 4 3 -2 6 -13 5 -11 0 -14 -3 -6 -6z"/>
<path d="M6778 8893 c6 -2 18 -2 25 0 6 3 1 5 -13 5 -14 0 -19 -2 -12 -5z"/>
<path d="M6608 8853 c6 -2 18 -2 25 0 6 3 1 5 -13 5 -14 0 -19 -2 -12 -5z"/>
<path d="M6438 8813 c7 -3 16 -2 19 1 4 3 -2 6 -13 5 -11 0 -14 -3 -6 -6z"/>
<path d="M6338 8783 c7 -3 16 -2 19 1 4 3 -2 6 -13 5 -11 0 -14 -3 -6 -6z"/>
<path d="M3941 8674 c0 -11 3 -14 6 -6 3 7 2 16 -1 19 -3 4 -6 -2 -5 -13z"/>
<path d="M5768 4803 c7 -3 16 -2 19 1 4 3 -2 6 -13 5 -11 0 -14 -3 -6 -6z"/>
<path d="M8898 3333 c6 -2 18 -2 25 0 6 3 1 5 -13 5 -14 0 -19 -2 -12 -5z"/>
<path d="M5158 3293 c7 -3 16 -2 19 1 4 3 -2 6 -13 5 -11 0 -14 -3 -6 -6z"/>
<path d="M9048 3293 c7 -3 16 -2 19 1 4 3 -2 6 -13 5 -11 0 -14 -3 -6 -6z"/>
<path d="M8458 3283 c7 -3 16 -2 19 1 4 3 -2 6 -13 5 -11 0 -14 -3 -6 -6z"/>
<path d="M5008 3253 c7 -3 16 -2 19 1 4 3 -2 6 -13 5 -11 0 -14 -3 -6 -6z"/>
<path d="M5708 3253 c6 -2 18 -2 25 0 6 3 1 5 -13 5 -14 0 -19 -2 -12 -5z"/>
<path d="M8608 3253 c7 -3 16 -2 19 1 4 3 -2 6 -13 5 -11 0 -14 -3 -6 -6z"/>
<path d="M8678 3243 c7 -3 16 -2 19 1 4 3 -2 6 -13 5 -11 0 -14 -3 -6 -6z"/>
<path d="M5528 3213 c6 -2 18 -2 25 0 6 3 1 5 -13 5 -14 0 -19 -2 -12 -5z"/>
<path d="M5488 3203 c7 -3 16 -2 19 1 4 3 -2 6 -13 5 -11 0 -14 -3 -6 -6z"/>
<path d="M4198 2943 c7 -3 16 -2 19 1 4 3 -2 6 -13 5 -11 0 -14 -3 -6 -6z"/>
</g>
</svg>
